<?xml version="1.0" encoding="utf-8"?>
<!-- Generator: Adobe Illustrator 22.0.0, SVG Export Plug-In . SVG Version: 6.00 Build 0)  -->
<svg version="1.1" id="Layer_1" xmlns="http://www.w3.org/2000/svg" xmlns:xlink="http://www.w3.org/1999/xlink" x="0px" y="0px"
	 viewBox="0 0 25.5 25.5" style="enable-background:new 0 0 25.5 25.5;" xml:space="preserve">
<style type="text/css">
	.st0{opacity:0.2;fill:none;stroke:#000000;stroke-width:0.25;stroke-miterlimit:10;enable-background:new    ;}
	.st1{fill:#FFFFFF;}
	.st2{fill:#2F9D6A;}
	.st3{fill:#FBB249;}
</style>
<g>
	<g>
		<circle class="st0" cx="12.8" cy="12.7" r="11.7"/>
		<circle class="st1" cx="12.8" cy="12.7" r="11.7"/>
	</g>
	<circle class="st1" cx="12.8" cy="12.7" r="11.6"/>
</g>
<g>
	<path class="st2" d="M20.8,15c0-1.9-1.1-3.8-2.9-4.6c-0.1,3.8-3.2,6.9-7,7c1.3,2.6,4.4,3.6,7,2.3c0.1-0.1,0.2-0.1,0.3-0.2l2.5,0.7
		L20,17.7C20.5,16.8,20.8,16,20.8,15L20.8,15z"/>
	<path class="st3" d="M17,10.3c0-3.3-2.8-6.1-6.1-6.1c-3.4,0-6.2,2.8-6.2,6.1c0,1.1,0.3,2.2,0.8,3.1l-0.8,3l3.1-0.8
		c2.9,1.7,6.7,0.8,8.4-2.2C16.7,12.4,17,11.4,17,10.3L17,10.3z M9.9,8.9H9C9,7.8,9.8,7,10.9,7s1.9,0.8,1.9,1.9
		c0,0.5-0.2,1.1-0.6,1.4L11.3,11v0.7h-0.9v-1.2l1.1-1c0.2-0.2,0.3-0.4,0.3-0.7c0-0.5-0.4-0.9-0.9-0.9C10.3,7.9,9.9,8.3,9.9,8.9
		L9.9,8.9L9.9,8.9z M10.4,12.7h0.9v0.9h-0.9V12.7z"/>
</g>
</svg>
