<?xml version="1.0" encoding="utf-8"?>
<!-- Generator: Adobe Illustrator 22.0.0, SVG Export Plug-In . SVG Version: 6.00 Build 0)  -->
<svg version="1.1" id="Layer_1" xmlns="http://www.w3.org/2000/svg" xmlns:xlink="http://www.w3.org/1999/xlink" x="0px" y="0px"
	 viewBox="0 0 25.5 25.5" style="enable-background:new 0 0 25.5 25.5;" xml:space="preserve">
<style type="text/css">
	.st0{opacity:0.2;fill:none;stroke:#000000;stroke-width:0.25;stroke-miterlimit:10;enable-background:new    ;}
	.st1{fill:#FFFFFF;}
	.st2{fill:#EDC00A;}
	.st3{fill:#2F9D6A;}
</style>
<g>
	<g>
		<circle class="st0" cx="12.8" cy="12.5" r="11.7"/>
		<circle class="st1" cx="12.8" cy="12.5" r="11.7"/>
	</g>
	<circle class="st1" cx="12.8" cy="12.5" r="11.6"/>
</g>
<g>
	<path class="st2" d="M19.7,16.7c0,0.5,0,1,0,1.5c0,0.2-0.2,0.4-0.4,0.4c-0.1,0-0.1,0-0.1,0c-4.6,0-9.2,0-13.7,0
		c-0.4,0-0.5-0.2-0.5-0.5c0-3,0-6.1,0-9.1c0-0.3,0.1-0.4,0.3-0.5c0.1,0,0.1,0,0.2,0c4.6,0,9.3,0,13.9,0c0.3,0,0.5,0.2,0.5,0.4
		c0,0.5,0,0.9,0,1.4v0.1c-0.1,0-0.1,0-0.2,0c-0.7,0-1.4,0-2.1,0c-1.5,0-2.9,1.1-3.2,2.7c-0.3,1.8,0.9,3.4,2.6,3.7
		c0.2,0.1,0.5,0.1,0.7,0.1c0.7,0,1.4,0,2.1,0C19.6,16.7,19.6,16.7,19.7,16.7z"/>
	<path class="st3" d="M20.6,13.4c0,0.6,0,1.2,0,1.8c0,0.3-0.2,0.5-0.5,0.5c-1,0-1.9,0-2.8,0c-1.1,0-2-0.9-2.2-1.9
		c-0.2-1.3,0.5-2.4,1.6-2.7c0.2-0.1,0.4-0.1,0.6-0.1c0.9,0,1.8,0,2.7,0c0.4,0,0.5,0.2,0.5,0.5C20.6,12.3,20.6,12.9,20.6,13.4z
		 M16.9,13.4c0,0.3,0.2,0.5,0.4,0.5s0.4-0.2,0.4-0.4c0-0.3-0.2-0.4-0.4-0.4C17.1,13,16.9,13.2,16.9,13.4z"/>
	<path class="st2" d="M9.3,7.4c0.7-0.2,1.4-0.3,2.1-0.5c1-0.2,2-0.4,3.1-0.7c1-0.2,1.9-0.4,2.8-0.6c0.2-0.1,0.5,0.2,0.5,0.4
		c0,0.3,0,0.5,0,0.7c0,0.2,0,0.4,0,0.6c0,0.1-0.1,0.1-0.1,0.1h-0.1c-2.7,0-5.5,0-8.2,0C9.4,7.4,9.4,7.4,9.3,7.4
		C9.3,7.4,9.3,7.4,9.3,7.4z"/>
</g>
</svg>
