<?xml version="1.0" encoding="utf-8"?>
<!-- Generator: Adobe Illustrator 22.0.0, SVG Export Plug-In . SVG Version: 6.00 Build 0)  -->
<svg version="1.1" id="Layer_1" xmlns="http://www.w3.org/2000/svg" xmlns:xlink="http://www.w3.org/1999/xlink" x="0px" y="0px"
	 viewBox="0 0 25.5 25.5" style="enable-background:new 0 0 25.5 25.5;" xml:space="preserve">
<style type="text/css">
	.st0{opacity:0.2;fill:none;stroke:#000000;stroke-width:0.25;stroke-miterlimit:10;enable-background:new    ;}
	.st1{fill:#FFFFFF;}
	.st2{fill:#2F9D6A;}
	.st3{fill:#F3B319;}
</style>
<g>
	<g>
		<circle class="st0" cx="12.9" cy="12.8" r="11.7"/>
		<circle class="st1" cx="12.9" cy="12.8" r="11.7"/>
	</g>
	<circle class="st1" cx="12.9" cy="12.8" r="11.6"/>
</g>
<g transform="translate(53.9) rotate(90)">
	<path class="st2" d="M7.9,41.7h7.4c0.4,0,0.7-0.3,0.7-0.7s-0.3-0.7-0.7-0.7l0,0H7.9l0.8-0.8c0.3-0.3,0.2-0.7-0.1-0.9
		c-0.3-0.2-0.6-0.2-0.8,0l-1.9,1.9l-0.1,0.1l0,0c0,0,0,0-0.1,0.1l0,0v0.1l0,0v0.1l0,0v0.1l0,0v0.1l0,0V41c0,0.1,0,0.1,0,0.2v0.1l0,0
		v0.1l0,0v0.1l0,0v0.1l0,0v0.1l0,0c0.1,0,0.1,0.1,0.1,0.1l0,0l0.1,0.1l1.9,1.9c0.3,0.3,0.6,0.3,0.9,0.1c0.3-0.3,0.3-0.6,0.1-0.9
		l-0.1-0.1L7.9,41.7z"/>
	<path class="st3" d="M14.6,35.8c-1.7,0-3.4,0.9-4.3,2.3c-0.2,0.3-0.1,0.7,0.2,0.9c0.3,0.2,0.7,0.1,0.9-0.2l0,0
		c1.2-1.8,3.7-2.3,5.5-1.1s2.3,3.7,1.1,5.5s-3.7,2.3-5.5,1.1c-0.4-0.3-0.8-0.7-1.1-1.1c-0.2-0.3-0.6-0.4-0.9-0.2
		c-0.3,0.2-0.4,0.6-0.2,0.9c1.6,2.4,4.8,3,7.2,1.4c2.4-1.6,3-4.8,1.4-7.2C17.9,36.6,16.3,35.8,14.6,35.8z"/>
</g>
</svg>
