<?xml version="1.0" encoding="utf-8"?>
<!-- Generator: Adobe Illustrator 22.0.0, SVG Export Plug-In . SVG Version: 6.00 Build 0)  -->
<svg version="1.1" id="Layer_1" xmlns="http://www.w3.org/2000/svg" xmlns:xlink="http://www.w3.org/1999/xlink" x="0px" y="0px"
	 viewBox="0 0 25.5 25.5" style="enable-background:new 0 0 25.5 25.5;" xml:space="preserve">
<style type="text/css">
	.st0{opacity:0.2;fill:none;stroke:#000000;stroke-width:0.25;stroke-miterlimit:10;enable-background:new    ;}
	.st1{fill:#FFFFFF;}
	.st2{fill:#EDC00A;}
	.st3{fill:#2F9D6A;}
</style>
<g>
	<g>
		<circle class="st0" cx="13.3" cy="12.6" r="11.7"/>
		<circle class="st1" cx="13.3" cy="12.6" r="11.7"/>
	</g>
	<circle class="st1" cx="13.3" cy="12.6" r="11.6"/>
</g>
<g transform="translate(-15.644 -13.511)">
	<path class="st2" d="M34.5,30.6l-0.6-7.9c0-0.5-0.5-0.9-1-0.9h-1.2v1.8c0,0.2-0.2,0.4-0.4,0.4c-0.2,0-0.4-0.2-0.4-0.4v-1.8h-3.8
		v1.8c0,0.2-0.2,0.4-0.4,0.4c-0.2,0-0.4-0.2-0.4-0.4v-1.8H25c-0.5,0-0.9,0.4-1,0.9l-0.6,7.9c-0.1,1.3,0.8,2.4,2.1,2.4
		c0,0,0.1,0,0.2,0h6.5c1.3,0,2.3-1,2.3-2.3C34.5,30.8,34.5,30.7,34.5,30.6L34.5,30.6z"/>
	<path class="st3" d="M29,19.1c-1.5,0-2.7,1.2-2.7,2.7v2.5h0.8v-2.5c0-1.1,0.8-1.9,1.9-1.9c1.1,0,1.9,0.8,1.9,1.9c0,0,0,0,0,0.1v2.5
		h0.8v-2.5C31.7,20.3,30.5,19.1,29,19.1z"/>
	<path class="st1" d="M30.9,29.5c0,0.2,0,0.3-0.1,0.5c-0.1,0.2-0.2,0.3-0.3,0.4s-0.3,0.2-0.4,0.3c-0.2,0.1-0.3,0.1-0.5,0.2v0.7h-0.7
		v-0.8c-0.2,0-0.3-0.1-0.5-0.2c-0.2-0.1-0.3-0.2-0.4-0.3s-0.2-0.3-0.3-0.4c-0.1-0.2-0.1-0.4-0.1-0.5h0.8c0,0.3,0.1,0.5,0.3,0.6
		c0.2,0.2,0.4,0.3,0.6,0.3c0.1,0,0.3,0,0.4,0c0.1,0,0.2-0.1,0.3-0.2c0.1-0.1,0.1-0.1,0.2-0.2c0-0.1,0.1-0.2,0.1-0.3
		c0-0.2-0.1-0.3-0.2-0.4c-0.2-0.1-0.3-0.2-0.5-0.3c-0.2-0.1-0.4-0.1-0.6-0.2c-0.2,0-0.4-0.2-0.6-0.3c-0.2-0.1-0.4-0.3-0.5-0.5
		c-0.2-0.3-0.2-0.5-0.2-0.8c0-0.1,0-0.2,0-0.3c0.1-0.2,0.2-0.4,0.3-0.5c0.1-0.1,0.3-0.2,0.4-0.3c0.2-0.1,0.4-0.1,0.5-0.2v-0.8h0.7
		v0.7l0,0c0.2,0,0.4,0,0.5,0.1c0.2,0.1,0.3,0.2,0.4,0.3c0.1,0.1,0.2,0.3,0.3,0.5c0.1,0.2,0.1,0.4,0.1,0.6h-0.8
		c0-0.3-0.1-0.5-0.3-0.6c-0.2-0.2-0.5-0.3-0.7-0.2c-0.3,0-0.5,0-0.8,0.2c-0.2,0.1-0.3,0.3-0.3,0.5c0,0.2,0.1,0.3,0.2,0.4
		c0.2,0.1,0.3,0.2,0.5,0.3c0.2,0.1,0.4,0.1,0.6,0.2c0.2,0,0.4,0.2,0.6,0.3c0.2,0.1,0.4,0.3,0.5,0.4C30.9,29,31,29.2,30.9,29.5
		L30.9,29.5z"/>
</g>
</svg>
