<?xml version="1.0" encoding="utf-8"?>
<!-- Generator: Adobe Illustrator 22.0.0, SVG Export Plug-In . SVG Version: 6.00 Build 0)  -->
<svg version="1.1" id="Layer_1" xmlns="http://www.w3.org/2000/svg" xmlns:xlink="http://www.w3.org/1999/xlink" x="0px" y="0px"
	 viewBox="0 0 25.5 25.5" style="enable-background:new 0 0 25.5 25.5;" xml:space="preserve">
<style type="text/css">
	.st0{opacity:0.2;fill:none;stroke:#000000;stroke-width:0.25;stroke-miterlimit:10;enable-background:new    ;}
	.st1{fill:#FFFFFF;}
	.st2{fill:#F3B319;}
	.st3{fill:none;stroke:#FFFFFF;stroke-miterlimit:10;}
</style>
<g>
	<g>
		<circle class="st0" cx="12.9" cy="12.8" r="11.7"/>
		<circle class="st1" cx="12.9" cy="12.8" r="11.7"/>
	</g>
	<circle class="st1" cx="12.9" cy="12.8" r="11.6"/>
</g>
<g>
	<path class="st2" d="M6.9,18.6c-0.4,0-0.7-0.3-0.7-0.7v-1.3c0-1.8,1.4-3.2,3.2-3.2h4.4c1.8,0,3.2,1.4,3.2,3.2V18
		c0,0.4-0.3,0.7-0.7,0.7H6.9z M8.4,9.1c0-1.8,1.4-3.3,3.2-3.3s3.2,1.4,3.2,3.2s-1.4,3.2-3.2,3.2l0,0C9.9,12.3,8.4,10.9,8.4,9.1z"/>
	<path class="st3" d="M17.8,18.4c-0.1,0-0.3,0-0.4,0s-0.1-0.1-0.2-0.1c0-0.2-0.1-0.4-0.1-0.7l-0.1-0.1c-0.1,0-0.1,0-0.1-0.1
		c-0.1-0.1-0.2-0.1-0.3,0.1c-0.1,0.1-0.3,0.2-0.4,0.4c-0.1,0.1-0.1,0.1-0.2,0c-0.2-0.2-0.4-0.4-0.7-0.7C15,17,15,17,15.1,16.9
		c0.1-0.1,0.2-0.3,0.4-0.4c0.1-0.1,0.1-0.1,0-0.1c0-0.1-0.1-0.1-0.1-0.1c0-0.1-0.1-0.2-0.3-0.2c-0.2,0-0.4-0.1-0.5-0.1
		c-0.1,0-0.1-0.1-0.1-0.1c0-0.3,0-0.7,0-1c0-0.1,0.1-0.1,0.1-0.1c0.2,0,0.4-0.1,0.7-0.1l0.1-0.1c0-0.1,0.1-0.1,0.1-0.2
		c0.1-0.1,0.1-0.1,0-0.3c-0.1-0.1-0.2-0.3-0.4-0.4c-0.1-0.1-0.1-0.1,0-0.2c0.2-0.2,0.4-0.4,0.7-0.7c0.1-0.1,0.1-0.1,0.3,0
		c0.1,0.1,0.3,0.2,0.5,0.4c0.1,0,0.1,0.1,0.1,0c0.1-0.1,0.1-0.1,0.2-0.1c0.1,0,0.1-0.1,0.1-0.1c0-0.2,0.1-0.4,0.1-0.7
		c0-0.1,0.1-0.1,0.1-0.1c0.3,0,0.7,0,1,0c0.1,0,0.1,0.1,0.2,0.1c0,0.2,0.1,0.4,0.1,0.7c0,0.1,0,0.1,0.1,0.1c0,0,0.1,0,0.1,0.1
		c0.1,0.1,0.3,0.1,0.4-0.1c0.1-0.1,0.3-0.2,0.4-0.3c0.1-0.1,0.1-0.1,0.2,0c0.2,0.2,0.4,0.4,0.7,0.7c0.1,0.1,0.1,0.1,0,0.3
		c-0.1,0.1-0.2,0.3-0.4,0.5C20,14,20,14,20.1,14c0,0.1,0.1,0.1,0.1,0.1c0,0.2,0.1,0.2,0.3,0.2c0.1,0,0.4,0.1,0.5,0.1
		c0.1,0,0.1,0.1,0.1,0.1c0,0.3,0,0.7,0,1c0,0.1-0.1,0.1-0.1,0.1c-0.2,0-0.4,0.1-0.7,0.1c-0.1,0-0.1,0.1-0.1,0.1
		c0,0.1-0.1,0.1-0.1,0.1c-0.1,0.1-0.1,0.2,0.1,0.3c0.1,0.1,0.2,0.3,0.4,0.4c0.1,0.1,0.1,0.1,0,0.2c-0.2,0.2-0.4,0.4-0.7,0.7
		c-0.1,0.1-0.1,0.1-0.3,0c-0.1-0.1-0.4-0.3-0.5-0.4c-0.1,0-0.1-0.1-0.1,0c-0.1,0-0.1,0.1-0.2,0.1c-0.1,0-0.1,0.1-0.1,0.2
		c0,0.2-0.1,0.4-0.1,0.6c0,0.1-0.1,0.1-0.2,0.1C18.1,18.4,17.9,18.4,17.8,18.4z M17.8,13.9c-0.7,0-1.1,0.5-1.1,1.1
		c0,0.6,0.5,1.1,1.1,1.1c0.7,0,1.1-0.5,1.1-1.1C18.9,14.3,18.4,13.9,17.8,13.9z"/>
	<path class="st2" d="M17.8,18.4c-0.1,0-0.3,0-0.4,0s-0.1-0.1-0.2-0.1c0-0.2-0.1-0.4-0.1-0.7l-0.1-0.1c-0.1,0-0.1,0-0.1-0.1
		c-0.1-0.1-0.2-0.1-0.3,0.1c-0.1,0.1-0.3,0.2-0.4,0.4c-0.1,0.1-0.1,0.1-0.2,0c-0.2-0.2-0.4-0.4-0.7-0.7C15,17,15,17,15.1,16.9
		c0.1-0.1,0.2-0.3,0.4-0.4c0.1-0.1,0.1-0.1,0-0.1c0-0.1-0.1-0.1-0.1-0.1c0-0.1-0.1-0.2-0.3-0.2c-0.2,0-0.4-0.1-0.5-0.1
		c-0.1,0-0.1-0.1-0.1-0.1c0-0.3,0-0.7,0-1c0-0.1,0.1-0.1,0.1-0.1c0.2,0,0.4-0.1,0.7-0.1l0.1-0.1c0-0.1,0.1-0.1,0.1-0.2
		c0.1-0.1,0.1-0.1,0-0.3c-0.1-0.1-0.2-0.3-0.4-0.4c-0.1-0.1-0.1-0.1,0-0.2c0.2-0.2,0.4-0.4,0.7-0.7c0.1-0.1,0.1-0.1,0.3,0
		c0.1,0.1,0.3,0.2,0.5,0.4c0.1,0,0.1,0.1,0.1,0c0.1-0.1,0.1-0.1,0.2-0.1c0.1,0,0.1-0.1,0.1-0.1c0-0.2,0.1-0.4,0.1-0.7
		c0-0.1,0.1-0.1,0.1-0.1c0.3,0,0.7,0,1,0c0.1,0,0.1,0.1,0.2,0.1c0,0.2,0.1,0.4,0.1,0.7c0,0.1,0,0.1,0.1,0.1c0,0,0.1,0,0.1,0.1
		c0.1,0.1,0.3,0.1,0.4-0.1c0.1-0.1,0.3-0.2,0.4-0.3c0.1-0.1,0.1-0.1,0.2,0c0.2,0.2,0.4,0.4,0.7,0.7c0.1,0.1,0.1,0.1,0,0.3
		c-0.1,0.1-0.2,0.3-0.4,0.5C20,14,20,14,20.1,14c0,0.1,0.1,0.1,0.1,0.1c0,0.2,0.1,0.2,0.3,0.2c0.1,0,0.4,0.1,0.5,0.1
		c0.1,0,0.1,0.1,0.1,0.1c0,0.3,0,0.7,0,1c0,0.1-0.1,0.1-0.1,0.1c-0.2,0-0.4,0.1-0.7,0.1c-0.1,0-0.1,0.1-0.1,0.1
		c0,0.1-0.1,0.1-0.1,0.1c-0.1,0.1-0.1,0.2,0.1,0.3c0.1,0.1,0.2,0.3,0.4,0.4c0.1,0.1,0.1,0.1,0,0.2c-0.2,0.2-0.4,0.4-0.7,0.7
		c-0.1,0.1-0.1,0.1-0.3,0c-0.1-0.1-0.4-0.3-0.5-0.4c-0.1,0-0.1-0.1-0.1,0c-0.1,0-0.1,0.1-0.2,0.1c-0.1,0-0.1,0.1-0.1,0.2
		c0,0.2-0.1,0.4-0.1,0.6c0,0.1-0.1,0.1-0.2,0.1C18.1,18.4,17.9,18.4,17.8,18.4z M17.8,13.9c-0.7,0-1.1,0.5-1.1,1.1
		c0,0.6,0.5,1.1,1.1,1.1c0.7,0,1.1-0.5,1.1-1.1C18.9,14.3,18.4,13.9,17.8,13.9z"/>
</g>
</svg>
