<?xml version="1.0" encoding="utf-8"?>
<!-- Generator: Adobe Illustrator 22.0.0, SVG Export Plug-In . SVG Version: 6.00 Build 0)  -->
<svg version="1.1" id="Layer_1" xmlns="http://www.w3.org/2000/svg" xmlns:xlink="http://www.w3.org/1999/xlink" x="0px" y="0px"
	 viewBox="0 0 25.5 25.5" style="enable-background:new 0 0 25.5 25.5;" xml:space="preserve">
<style type="text/css">
	.st0{opacity:0.2;fill:none;stroke:#000000;stroke-width:0.25;stroke-miterlimit:10;enable-background:new    ;}
	.st1{fill:#FFFFFF;}
	.st2{fill:#F3B319;}
	.st3{fill:#2F9D6A;}
</style>
<g>
	<g>
		<circle class="st0" cx="12.8" cy="12.3" r="11.7"/>
		<circle class="st1" cx="12.8" cy="12.3" r="11.7"/>
	</g>
	<circle class="st1" cx="12.8" cy="12.3" r="11.6"/>
</g>
<g>
	<path class="st2" d="M18.4,17.7H7.1c-0.6,0-1.1-0.5-1.1-1.1l0,0V9.3h13.6v7.2C19.5,17.1,19,17.7,18.4,17.7L18.4,17.7z"/>
	<g>
		<path class="st3" d="M7.1,7L7.1,7h11.4c0.6,0,1.1,0.5,1.1,1.1v0.4l0,0"/>
		<path class="st3" d="M19.5,8.6H5.9V8.2C5.9,7.6,6.4,7,7.1,7"/>
	</g>
	<path class="st1" d="M8,16.7H7c0,0-0.1,0-0.1-0.1v-0.5c0,0,0-0.1,0.1-0.1h1c0,0,0.1,0,0.1,0.1v0.5C8.1,16.7,8.1,16.7,8,16.7z"/>
	<path class="st1" d="M16.5,16.7h-8c0,0-0.1,0-0.1-0.1v-0.5c0,0,0-0.1,0.1-0.1h8c0,0,0.1,0,0.1,0.1v0.5
		C16.7,16.7,16.6,16.7,16.5,16.7z"/>
</g>
</svg>
