<?xml version="1.0" encoding="utf-8"?>
<!-- Generator: Adobe Illustrator 22.0.0, SVG Export Plug-In . SVG Version: 6.00 Build 0)  -->
<svg version="1.1" id="Layer_1" xmlns="http://www.w3.org/2000/svg" xmlns:xlink="http://www.w3.org/1999/xlink" x="0px" y="0px"
	 viewBox="0 0 25.5 25.5" style="enable-background:new 0 0 25.5 25.5;" xml:space="preserve">
<style type="text/css">
	.st0{opacity:0.2;fill:none;stroke:#000000;stroke-width:0.25;stroke-miterlimit:10;enable-background:new    ;}
	.st1{fill:#FFFFFF;}
	.st2{fill:#2F9D6A;}
	.st3{fill:#F7E186;}
	.st4{fill:#F3B319;}
</style>
<g>
	<g>
		<circle class="st0" cx="13" cy="12.8" r="11.7"/>
		<circle class="st1" cx="13" cy="12.8" r="11.7"/>
	</g>
	<circle class="st1" cx="13" cy="12.8" r="11.6"/>
</g>
<g>
	<path class="st2" d="M14.7,12.9c0,0.9-0.8,1.7-1.7,1.7s-1.7-0.8-1.7-1.7s0.8-1.7,1.7-1.7S14.7,11.9,14.7,12.9L14.7,12.9z"/>
	<path class="st3" d="M19.2,7.1c-0.3-0.3-0.7-0.5-1.2-0.5H8c-0.9,0-1.6,0.7-1.6,1.6V10c0,0.9,0.7,1.6,1.6,1.6l0,0h0.1V8.7
		c0-0.2,0.2-0.4,0.4-0.4l0,0h9.1c0.2,0,0.4,0.2,0.4,0.4l0,0v2.9H18c0.9,0,1.6-0.7,1.6-1.6V8.3C19.6,7.8,19.4,7.4,19.2,7.1L19.2,7.1z
		"/>
	<path class="st4" d="M8.8,18.7c0,0.7,0.5,1.2,1.2,1.2h5.9c0.7,0,1.2-0.5,1.2-1.2V9.1H8.8V18.7z M13,10.4c1.4,0,2.5,1.1,2.5,2.5
		s-1.1,2.5-2.5,2.5s-2.5-1.1-2.5-2.5l0,0C10.5,11.5,11.6,10.4,13,10.4z M10.9,17H15c0.2,0,0.4,0.2,0.4,0.4c0,0.2-0.2,0.4-0.4,0.4
		l0,0h-4.2c-0.2,0-0.4-0.2-0.4-0.4C10.5,17.2,10.7,17,10.9,17L10.9,17z"/>
</g>
</svg>
