<?xml version="1.0" encoding="utf-8"?>
<!-- Generator: Adobe Illustrator 22.0.0, SVG Export Plug-In . SVG Version: 6.00 Build 0)  -->
<svg version="1.1" id="Layer_1" xmlns="http://www.w3.org/2000/svg" xmlns:xlink="http://www.w3.org/1999/xlink" x="0px" y="0px"
	 viewBox="0 0 25.5 25.5" style="enable-background:new 0 0 25.5 25.5;" xml:space="preserve">
<style type="text/css">
	.st0{opacity:0.2;fill:none;stroke:#000000;stroke-width:0.25;stroke-miterlimit:10;enable-background:new    ;}
	.st1{fill:#FFFFFF;}
	.st2{fill:#2F9D6A;}
</style>
<g>
	<g>
		<circle class="st0" cx="13" cy="12.7" r="11.7"/>
		<circle class="st1" cx="13" cy="12.7" r="11.7"/>
	</g>
	<circle class="st1" cx="13" cy="12.7" r="11.6"/>
</g>
<g>
	<path class="st2" d="M19.8,10c-4.5,0-9.1,0-13.5,0c0-0.2,0-0.5,0-0.7c0-0.1,0.1-0.1,0.1-0.1C7.1,8.9,8,8.6,8.7,8.3
		c1.4-0.5,2.7-1.1,4.1-1.6c0.1-0.1,0.2-0.1,0.3,0c2.2,0.8,4.3,1.7,6.5,2.5c0.1,0.1,0.2,0.1,0.1,0.2C19.8,9.6,19.8,9.8,19.8,10z
		 M13.6,8.5c0-0.3-0.3-0.6-0.6-0.6c-0.3,0-0.5,0.3-0.5,0.6S12.8,9,13.1,9C13.3,9,13.6,8.8,13.6,8.5z"/>
	<path class="st2" d="M5.9,11.4c0-0.3,0-0.7,0-1c0-0.1,0.1-0.1,0.1-0.1c0.1,0,0.1,0,0.2,0c4.6,0,9.3,0,13.9,0c0.1,0,0.1,0,0.2,0
		c0,0.4,0,0.8,0,1.1C15.4,11.4,10.7,11.4,5.9,11.4z"/>
	<path class="st2" d="M7.1,17.4c0-1.8,0-3.6,0-5.3c-0.2,0-0.3,0-0.5,0c0-0.2,0-0.3,0-0.4c0.1-0.1,0.1-0.1,0.1-0.1c0.8,0,1.7,0,2.5,0
		c0,0,0,0,0.1,0c0,0.1,0,0.2,0,0.4c0,0.1-0.1,0.1-0.1,0.1c-0.1,0-0.2,0-0.3,0c0,1.8,0,3.6,0,5.3c0.1,0,0.2,0,0.3,0
		c0.1,0,0.1,0,0.1,0.1c0,0.1,0,0.2,0,0.3c-0.1,0-0.1,0-0.2,0c-0.8,0-1.6,0-2.3,0c-0.1,0-0.2-0.1-0.2-0.2c0-0.3,0-0.3,0.3-0.3
		C7,17.4,7,17.4,7.1,17.4z"/>
	<path class="st2" d="M10.5,12.1c-0.2,0-0.3,0-0.4,0c0-0.2,0-0.3,0-0.4c0.9,0,1.7,0,2.6,0c0,0.1,0,0.3,0,0.4c0,0.1-0.1,0.1-0.1,0.1
		c-0.1,0-0.2,0-0.3,0c0,1.8,0,3.6,0,5.3c0.1,0,0.2,0,0.3,0c0.1,0,0.1,0.1,0.1,0.1c0,0.1,0,0.2,0,0.3c-0.9,0-1.7,0-2.6,0
		c0-0.2,0-0.3,0-0.4c0.2,0,0.3,0,0.4,0C10.5,15.6,10.5,13.8,10.5,12.1z"/>
	<path class="st2" d="M15.6,12.1c0,1.8,0,3.6,0,5.3c0.2,0,0.3,0,0.4,0c0,0.2,0,0.3,0,0.5c-0.9,0-1.7,0-2.6,0c0-0.1,0-0.3,0-0.4
		c0,0,0.1-0.1,0.1-0.1c0.1,0,0.2,0,0.4,0c0-0.1,0-0.1,0-0.2c0-1.7,0-3.3,0-5c0-0.2-0.1-0.2-0.2-0.2c-0.3,0-0.3,0-0.3-0.3
		c0-0.1,0-0.1,0-0.2c0.9,0,1.7,0,2.6,0c0,0.1,0,0.3,0,0.4c0,0.1-0.1,0.1-0.1,0.1C15.8,12.1,15.7,12.1,15.6,12.1z"/>
	<path class="st2" d="M19,12.1c0,1.8,0,3.6,0,5.3c0.1,0,0.2,0,0.3,0c0.1,0,0.1,0.1,0.1,0.1c0,0.1,0,0.2,0,0.3c-0.9,0-1.7,0-2.6,0
		c0,0,0,0,0-0.1c-0.1-0.4-0.1-0.4,0.4-0.4c0,0,0.1,0,0.1,0c0-1.8,0-3.6,0-5.3c-0.1,0-0.2,0-0.3,0C17,12,16.9,12,16.9,12
		c0-0.1,0-0.3,0-0.4c0.1,0,0.1,0,0.2,0c0.8,0,1.5,0,2.3,0c0.1,0,0.2,0,0.2,0.2c0,0.3,0,0.3-0.3,0.3C19.1,12.1,19.1,12.1,19,12.1z"/>
	<path class="st2" d="M20.5,18.1c0,0.2,0,0.4,0,0.6c-5,0-10,0-15,0c0-0.2,0-0.4,0-0.6C10.5,18.1,15.6,18.1,20.5,18.1z"/>
</g>
</svg>
