<?xml version="1.0" encoding="utf-8"?>
<!-- Generator: Adobe Illustrator 22.0.0, SVG Export Plug-In . SVG Version: 6.00 Build 0)  -->
<svg version="1.1" id="Layer_1" xmlns="http://www.w3.org/2000/svg" xmlns:xlink="http://www.w3.org/1999/xlink" x="0px" y="0px"
	 viewBox="0 0 25.5 25.5" style="enable-background:new 0 0 25.5 25.5;" xml:space="preserve">
<style type="text/css">
	.st0{opacity:0.2;fill:none;stroke:#000000;stroke-width:0.25;stroke-miterlimit:10;enable-background:new    ;}
	.st1{fill:#FFFFFF;}
	.st2{fill:#2C9C6F;}
	.st3{fill:#FAB05C;}
</style>
<g>
	<g>
		<circle class="st0" cx="12.9" cy="12.6" r="11.7"/>
		<circle class="st1" cx="12.9" cy="12.6" r="11.7"/>
	</g>
	<circle class="st1" cx="12.9" cy="12.6" r="11.6"/>
</g>
<g>
	<path class="st2" d="M5.8,13.3C5.5,12.2,5.6,11,6,10c0.7-2,2.6-3.5,4.8-3.7l0.6-0.1V5.6c0-0.1,0-0.1,0-0.3l3.2,2.8l-3.3,2.8V10
		h-0.5c-2.1,0.1-4,1.2-5,3C5.9,13.1,5.8,13.2,5.8,13.3z"/>
	<path class="st3" d="M20.1,12c0.2,0.9,0.2,1.8-0.1,2.7c-0.5,2.3-2.5,3.9-4.7,4.2c-0.2,0-0.3,0.1-0.4,0.1h-0.4v0.9l-3.3-2.8l3.3-2.8
		v1l0.5-0.1c1.7-0.1,3.2-0.8,4.3-2C19.6,12.8,19.8,12.4,20.1,12z"/>
</g>
</svg>
