<?xml version="1.0" encoding="utf-8"?>
<!-- Generator: Adobe Illustrator 22.0.0, SVG Export Plug-In . SVG Version: 6.00 Build 0)  -->
<svg version="1.1" id="Layer_1" xmlns="http://www.w3.org/2000/svg" xmlns:xlink="http://www.w3.org/1999/xlink" x="0px" y="0px"
	 viewBox="0 0 25.5 25.5" style="enable-background:new 0 0 25.5 25.5;" xml:space="preserve">
<style type="text/css">
	.st0{opacity:0.2;fill:none;stroke:#000000;stroke-width:0.25;stroke-miterlimit:10;enable-background:new    ;}
	.st1{fill:#FFFFFF;}
	.st2{fill:#F2B143;}
	.st3{fill:#2C9C6F;}
</style>
<g>
	<g>
		<circle class="st0" cx="12.8" cy="12.8" r="11.7"/>
		<circle class="st1" cx="12.8" cy="12.8" r="11.7"/>
	</g>
	<circle class="st1" cx="12.8" cy="12.8" r="11.6"/>
</g>
<g transform="translate(-215 -659.004)">
	<path class="st2" d="M226.2,676.4h3.3c0.2,0,0.3,0.2,0.3,0.3v0.3c0,0.2-0.2,0.3-0.3,0.3h-3.3c-0.2,0-0.3-0.2-0.3-0.3v-0.3
		C225.9,676.6,226.1,676.4,226.2,676.4z"/>
	<path class="st3" d="M226.9,678.5h2c0.2,0,0.3,0.2,0.3,0.3v0.3c0,0.2-0.2,0.3-0.3,0.3h-2c-0.2,0-0.3-0.2-0.3-0.3v-0.3
		C226.6,678.6,226.7,678.5,226.9,678.5z"/>
	<path class="st2" d="M229.7,674.9c0-1.1,0.5-2.3,1.2-3l0.1-0.1c0.9-0.8,1.4-2,1.4-3.2c0-1.2-0.5-2.4-1.3-3.3
		c-1.9-1.8-4.8-1.8-6.6,0c-0.8,0.8-1.4,2-1.4,3.3c0,1.2,0.5,2.4,1.4,3.2l0.1,0.1c0.8,0.8,1.3,1.9,1.2,3c0,0.3,0.3,0.6,0.6,0.5h2.7
		C229.4,675.4,229.7,675.2,229.7,674.9L229.7,674.9z"/>
	<path class="st1" d="M229.4,666.3h-2.2l-1.2,3.8h1.4l-0.6,2.8l2.5-4.1H228L229.4,666.3z"/>
</g>
</svg>
