<?xml version="1.0" encoding="utf-8"?>
<!-- Generator: Adobe Illustrator 22.0.0, SVG Export Plug-In . SVG Version: 6.00 Build 0)  -->
<svg version="1.1" id="Layer_1" xmlns="http://www.w3.org/2000/svg" xmlns:xlink="http://www.w3.org/1999/xlink" x="0px" y="0px"
	 viewBox="0 0 25.5 25.5" style="enable-background:new 0 0 25.5 25.5;" xml:space="preserve">
<style type="text/css">
	.st0{opacity:0.2;fill:none;stroke:#000000;stroke-width:0.25;stroke-miterlimit:10;enable-background:new    ;}
	.st1{fill:#FFFFFF;}
	.st2{fill:#2F9D6A;}
</style>
<g>
	<g>
		<circle class="st0" cx="12.9" cy="12.8" r="11.7"/>
		<circle class="st1" cx="12.9" cy="12.8" r="11.7"/>
	</g>
	<circle class="st1" cx="12.9" cy="12.8" r="11.6"/>
</g>
<g transform="translate(0 -2)">
	<path class="st2" d="M20.3,14.7c0-4.1-3.4-7.5-7.5-7.5s-7.5,3.3-7.5,7.5c0,1.4,0.4,2.7,1,3.8l-1,3.7l3.7-1
		c3.5,2.1,8.2,0.9,10.3-2.7C19.9,17.3,20.3,16,20.3,14.7L20.3,14.7z M11.6,13h-1.1c0-1.3,1-2.3,2.3-2.3s2.3,1,2.3,2.3
		c0,0.7-0.3,1.3-0.8,1.7l-0.9,0.9v0.9h-1.1V15l1.4-1.3c0.2-0.2,0.4-0.5,0.4-0.9c0-0.7-0.5-1.1-1.1-1.1S11.6,12.3,11.6,13L11.6,13
		L11.6,13z M12.2,17.6h1.1v1.1h-1.1V17.6z"/>
</g>
</svg>
