<?xml version="1.0" encoding="utf-8"?>
<!-- Generator: Adobe Illustrator 22.0.0, SVG Export Plug-In . SVG Version: 6.00 Build 0)  -->
<svg version="1.1" id="Layer_1" xmlns="http://www.w3.org/2000/svg" xmlns:xlink="http://www.w3.org/1999/xlink" x="0px" y="0px"
	 viewBox="0 0 25.5 25.5" style="enable-background:new 0 0 25.5 25.5;" xml:space="preserve">
<style type="text/css">
	.st0{opacity:0.2;fill:none;stroke:#000000;stroke-width:0.25;stroke-miterlimit:10;enable-background:new    ;}
	.st1{fill:#FFFFFF;}
	.st2{fill:#2F9D6A;}
</style>
<g>
	<g>
		<circle class="st0" cx="13.1" cy="12.8" r="11.7"/>
		<circle class="st1" cx="13.1" cy="12.8" r="11.7"/>
	</g>
	<circle class="st1" cx="13.1" cy="12.8" r="11.6"/>
</g>
<g transform="translate(2093 998.906)">
	<g transform="translate(-2198 -1130.405)">
		<g transform="translate(105 131.5)">
			<path class="st2" d="M20.5,11.8h-2.7c-1.3,0-2.3,1.1-2.3,2.3s1.1,2.3,2.3,2.3h2.7c0.3,0,0.5-0.2,0.5-0.5v-3.7
				C21,12,20.8,11.8,20.5,11.8L20.5,11.8z M17.7,14.6c-0.3,0-0.5-0.2-0.5-0.5s0.2-0.5,0.5-0.5s0.5,0.2,0.5,0.5l0,0
				C18.2,14.4,18,14.6,17.7,14.6L17.7,14.6L17.7,14.6z M14.5,14.2c0-1.8,1.4-3.2,3.2-3.2h2.3V9.5c0-0.3-0.2-0.5-0.5-0.5H5.7
				C5.5,9.1,5.3,9.3,5.3,9.5v9.3c0,0.3,0.2,0.5,0.5,0.5h13.8c0.3,0,0.5-0.2,0.5-0.5v-1.4h-2.3C16,17.4,14.5,15.9,14.5,14.2
				L14.5,14.2z M18.2,6.8c0-0.2-0.1-0.3-0.2-0.4s-0.3-0.1-0.4-0.1L9.7,8.1h8.5C18.2,8.1,18.2,6.8,18.2,6.8z"/>
		</g>
	</g>
</g>
</svg>
