<?xml version="1.0" encoding="utf-8"?>
<!-- Generator: Adobe Illustrator 23.0.1, SVG Export Plug-In . SVG Version: 6.00 Build 0)  -->
<svg version="1.1" id="Layer_1" xmlns="http://www.w3.org/2000/svg" xmlns:xlink="http://www.w3.org/1999/xlink" x="0px" y="0px"
	 viewBox="0 0 150.6 154.1" style="enable-background:new 0 0 150.6 154.1;" xml:space="preserve">
<style type="text/css">
	.st0{fill:url(#SVGID_1_);stroke:#FFFFFF;stroke-width:3;stroke-miterlimit:10;}
	.st1{fill:#FFFFFF;}
	.st2{fill:#11743B;}
	.st3{font-family:'Nunito-SemiBoldItalic';}
	.st4{font-size:15.9272px;}
</style>
<g>
	
		<radialGradient id="SVGID_1_" cx="77.0176" cy="925.5817" r="92.1713" gradientTransform="matrix(1 0 0 0.9677 0 -863.8021)" gradientUnits="userSpaceOnUse">
		<stop  offset="0" style="stop-color:#FFD007"/>
		<stop  offset="0.0517" style="stop-color:#FBC70C"/>
		<stop  offset="0.1856" style="stop-color:#F2B416"/>
		<stop  offset="0.3452" style="stop-color:#ECA81E"/>
		<stop  offset="0.5542" style="stop-color:#E9A022"/>
		<stop  offset="1" style="stop-color:#E89E23"/>
	</radialGradient>
	<ellipse class="st0" cx="75.9" cy="67.7" rx="55.5" ry="53.7"/>
</g>
<g>
	<path class="st1" d="M94.3,82.7c-1.2-1.5-3.4-1.7-4.9-0.6c-3.8,2.9-8.4,4.6-13.4,5c-3.4,0.2-6.7-0.1-10-1.1
		c-0.9-0.3-1.9-0.2-2.7,0.2c-0.8,0.4-1.4,1.1-1.7,2c-0.5,1.8,0.5,3.7,2.3,4.2c4.1,1.3,8.4,1.8,12.7,1.4c0.1,0,0.2,0,0.2,0
		c6.2-0.5,12-2.7,16.8-6.3c0.7-0.6,1.2-1.3,1.3-2.2C95.2,84.3,94.9,83.4,94.3,82.7z"/>
	<path class="st1" d="M62.8,68.7l-1,10.3c-0.2,1.8-1.8,3.4-3.6,3.5c-1.9,0.2-3.2-1.2-3-3l1-10.3c0.4-3.9-2.2-6.7-5.7-6.4
		c-4.3,0.3-6.9,4.8-7.3,8.5l-0.9,9.2c-0.2,1.8-1.8,3.4-3.6,3.5s-3.2-1.2-3-3l2-20.8c0.2-1.8,1.8-3.4,3.6-3.5c1.4-0.1,2.6,0.7,2.9,2
		c2.1-1.4,4.5-2.3,6.9-2.5C58.2,55.7,63.5,61.2,62.8,68.7z"/>
	<path class="st1" d="M76.5,80.9c-7.6,0.6-13.3-4.9-12.6-12.5c0.7-7.5,7.5-14.2,15.2-14.8s13.3,5,12.7,12.6
		C90.9,73.7,84.1,80.3,76.5,80.9z M78.4,60.3c-3.9,0.3-7.4,3.7-7.7,7.5s2.5,6.7,6.4,6.4s7.4-3.7,7.7-7.5
		C85.2,62.9,82.3,60,78.4,60.3z"/>
	<path class="st1" d="M105.2,75.2c-0.2,1.8-1.8,3.4-3.6,3.5c-0.5,0-0.9,0.1-1.4,0.1c-1.8-0.1-3.5-0.7-4.6-2.1
		c-1-1.2-1.6-3.1-1.4-4.7l1.3-13.7L93,58.4c-1.8,0.2-3.2-1.2-3-3s1.8-3.4,3.6-3.5l2.4-0.2l0.7-6.8c0.2-1.8,1.8-3.4,3.6-3.5
		c1.8-0.2,3.2,1.2,3,3l-0.7,6.8l10.6-0.8c1.8-0.2,3.2,1.2,3,3s-1.8,3.4-3.6,3.5L102,57.7l-1.2,12.9c0.1,0.4-0.1,1.1,0.2,1.4
		c0.2,0.2,0.8,0.2,1.1,0.1C104,72,105.3,73.4,105.2,75.2z"/>
	<path class="st1" d="M110.6,78.1c-1.9,0.2-3.3-1.2-3.2-3.1l2-21c0.2-1.8,1.9-3.4,3.8-3.6c1.8-0.2,3.2,1.2,3.1,3l-2,21
		C114.1,76.3,112.4,78,110.6,78.1z"/>
	<ellipse class="st1" cx="113.2" cy="46" rx="3" ry="3"/>
</g>
<text transform="matrix(1 0 0 1 10.8081 139.6184)" class="st2 st3 st4">Life with no limits</text>
</svg>
